<?xml version="1.0" encoding="UTF-8"?>
<svg version="1.1" xmlns="http://www.w3.org/2000/svg" width="540" height="270">
<path d="M0 0 C178.2 0 356.4 0 540 0 C540 89.1 540 178.2 540 270 C361.8 270 183.6 270 0 270 C0 180.9 0 91.8 0 0 Z " fill="#7AA09B" transform="translate(0,0)"/>
<path d="M0 0 C1.06025391 -0.020625 2.12050781 -0.04125 3.21289062 -0.0625 C10.58809611 -0.0988983 17.66900025 0.23385671 23.62890625 5.00390625 C24.08136719 5.60074219 24.53382813 6.19757813 25 6.8125 C25.47566406 7.41191406 25.95132813 8.01132813 26.44140625 8.62890625 C27.4375 10.25 27.4375 10.25 27.4375 12.25 C22.38243886 10.95684482 19.99301453 8.99264687 16.4375 5.25 C15.12481794 4.54353838 13.79400556 3.86815443 12.4375 3.25 C3.50184996 11.98895334 3.57096199 22.921972 3.37890625 34.90625 C3.37551997 38.02162991 3.392282 41.13498235 3.4375 44.25 C9.66292473 39.17282027 14.29938155 34.12877395 18.4375 27.25 C19.0975 26.26 19.7575 25.27 20.4375 24.25 C22.4175 24.91 24.3975 25.57 26.4375 26.25 C25.98745958 35.02578811 19.56767777 41.55769207 13.4375 47.25 C14.53449219 46.80011719 15.63148438 46.35023438 16.76171875 45.88671875 C21.81761622 43.99201031 26.94881344 43.01589744 32.25 42.0625 C33.19037109 41.88525391 34.13074219 41.70800781 35.09960938 41.52539062 C41.98868847 40.25 41.98868847 40.25 45.4375 40.25 C44.4475 47.18 43.4575 54.11 42.4375 61.25 C28.8125 65.25 28.8125 65.25 25.4375 65.25 C25.75460938 66.3740625 26.07171875 67.498125 26.3984375 68.65625 C27.5718285 73.34981401 27.8734974 77.93088152 28.0625 82.75 C28.18625 85.555 28.31 88.36 28.4375 91.25 C22.1675 91.25 15.8975 91.25 9.4375 91.25 C9.169375 89.084375 8.90125 86.91875 8.625 84.6875 C7.5700068 77.10028382 7.5700068 77.10028382 4.4375 70.25 C1.47042954 68.39083176 1.47042954 68.39083176 -1.5625 67.25 C-2.2225 66.59 -2.8825 65.93 -3.5625 65.25 C-5.63124034 64.6074765 -5.63124034 64.6074765 -7.5625 64.25 C-7.5625 64.91 -7.5625 65.57 -7.5625 66.25 C-13.61987867 66.67507921 -17.81404545 66.24083596 -22.5625 62.25 C-26.00484295 58.93310686 -27.84266408 56.86204164 -28.12109375 52.02734375 C-28.11019683 50.41359441 -28.06814292 48.79984681 -28 47.1875 C-27.97752197 46.32205566 -27.95504395 45.45661133 -27.93188477 44.56494141 C-27.84190884 41.79089125 -27.70471866 39.02182241 -27.5625 36.25 C-27.52769531 35.31913574 -27.49289063 34.38827148 -27.45703125 33.42919922 C-26.63466845 13.04381781 -26.63466845 13.04381781 -18.5625 5.25 C-12.44549029 -0.32327552 -8.00627977 0.03796695 0 0 Z " fill="#2C2727" transform="translate(164.5625,103.75)"/>
<path d="M0 0 C4.43982497 4.89753888 5.42766882 11.82524688 6.89453125 18.08984375 C7.36349863 19.9533983 7.83359752 21.81666839 8.3046875 23.6796875 C8.77582581 25.60717461 9.24330959 27.53555888 9.70703125 29.46484375 C9.92649414 30.36710693 10.14595703 31.26937012 10.37207031 32.19897461 C11.7062892 38.07956054 12.74105702 44.059654 11.89453125 50.08984375 C9.23925314 53.70397229 7.24658715 55.31719614 2.89453125 56.08984375 C1.14566144 56.15608882 -0.60549623 56.1753697 -2.35546875 56.15234375 C-3.2475 56.14332031 -4.13953125 56.13429687 -5.05859375 56.125 C-5.7340625 56.11339844 -6.40953125 56.10179687 -7.10546875 56.08984375 C-7.07710938 56.87746094 -7.04875 57.66507813 -7.01953125 58.4765625 C-7.10546875 61.08984375 -7.10546875 61.08984375 -8.48046875 62.90234375 C-10.10546875 64.08984375 -10.10546875 64.08984375 -12.10546875 64.08984375 C-12.10546875 73.65984375 -12.10546875 83.22984375 -12.10546875 93.08984375 C-21.10546875 96.46484375 -21.10546875 96.46484375 -24.60546875 96.3828125 C-25.34667969 96.37314453 -26.08789062 96.36347656 -26.8515625 96.35351562 C-27.59535156 96.32837891 -28.33914063 96.30324219 -29.10546875 96.27734375 C-30.26755859 96.25704102 -30.26755859 96.25704102 -31.453125 96.23632812 C-33.33754909 96.20143138 -35.22160807 96.14764402 -37.10546875 96.08984375 C-37.45009172 86.97648076 -36.92798213 79.12245778 -34.7734375 70.2109375 C-33.95068623 66.36662017 -33.87091396 62.9990903 -34.10546875 59.08984375 C-26.85394582 56.38588605 -19.76878594 55.09661649 -12.10546875 54.08984375 C-12.10546875 53.42984375 -12.10546875 52.76984375 -12.10546875 52.08984375 C-13.03359375 52.17234375 -13.96171875 52.25484375 -14.91796875 52.33984375 C-26.74914451 52.22081784 -35.40171613 44.70703014 -43.421875 36.80859375 C-43.97746094 36.24140625 -44.53304688 35.67421875 -45.10546875 35.08984375 C-44.44546875 33.43984375 -43.78546875 31.78984375 -43.10546875 30.08984375 C-42.11546875 30.08984375 -41.12546875 30.08984375 -40.10546875 30.08984375 C-39.08453125 31.38921875 -39.08453125 31.38921875 -38.04296875 32.71484375 C-32.19067376 40.12192755 -22.80506198 43.27818814 -14.10546875 46.08984375 C-15.60292372 32.67979924 -20.78810726 26.11178475 -29.77734375 16.62890625 C-32.28445743 13.89463798 -32.98742415 12.95550416 -33.48046875 9.33984375 C-32.98949988 5.08478019 -31.38338911 2.69832967 -28.10546875 0.08984375 C-19.92823204 -4.36591585 -7.97462965 -5.18710145 0 0 Z " fill="#3E3B38" transform="translate(407.10546875,102.91015625)"/>
<path d="M0 0 C2.71509105 2.71509105 3.40091298 3.40720961 3.53515625 7.1875 C3.52355469 8.26 3.51195312 9.3325 3.5 10.4375 C3.49097656 11.51 3.48195313 12.5825 3.47265625 13.6875 C3.46105469 14.595 3.44945312 15.5025 3.4375 16.4375 C3.23468949 18.56673659 3.23468949 18.56673659 4.875 20.3125 C8.65354459 25.45132064 7.9501573 32.34969458 7.4375 38.4375 C5.54429927 44.51567077 2.64584664 46.13516985 -2.875 49.1875 C-5.09671194 50.28604049 -7.32509708 51.37128083 -9.5625 52.4375 C-11.2640625 53.365625 -11.2640625 53.365625 -13 54.3125 C-23.79564494 57.72165103 -36.32891426 56.55989984 -47.5625 56.4375 C-47.23349558 53.47646024 -46.76897527 51.71330643 -44.96875 49.30859375 C-41.90942203 46.92966826 -38.68647304 45.73709923 -35.0625 44.5 C-33.63211085 43.99024584 -32.20242868 43.47850377 -30.7734375 42.96484375 C-30.06541992 42.71202637 -29.35740234 42.45920898 -28.62792969 42.19873047 C-24.62910019 40.72493019 -20.72966268 39.01400917 -16.8203125 37.3203125 C-14.5625 36.4375 -14.5625 36.4375 -12.5625 36.4375 C-12.5625 31.8175 -12.5625 27.1975 -12.5625 22.4375 C-16.12638907 23.62546302 -16.72123182 24.6969805 -18.875 27.6875 C-24.90662925 35.5961923 -31.03398755 39.45206529 -40.5625 42.4375 C-43.3976277 42.78430461 -45.70319183 42.71243348 -48.5625 42.4375 C-48.2325 41.1175 -47.9025 39.7975 -47.5625 38.4375 C-46.87285156 38.29054687 -46.18320312 38.14359375 -45.47265625 37.9921875 C-34.41383737 35.35263402 -29.00066203 31.11535571 -21.5625 22.4375 C-33.4425 22.4375 -45.3225 22.4375 -57.5625 22.4375 C-59.27656508 17.29530475 -59.46317745 11.68919362 -57.4375 6.625 C-45.64220733 -7.13617478 -14.86419889 -11.79366016 0 0 Z " fill="#89745D" transform="translate(331.5625,175.5625)"/>
<path d="M0 0 C1.875 0.125 1.875 0.125 4 1 C4.268125 1.825 4.53625 2.65 4.8125 3.5 C6.54665248 8.61118627 8.84938579 12.48689843 13 16 C16.35037123 17.22079514 16.35037123 17.22079514 20 18 C26.32198233 19.48202754 28.85368955 21.10226712 32.3515625 26.5 C34.21933111 29.33263485 36.36233635 31.65686513 38.6875 34.125 C45.71945933 41.83979013 48.17202613 47.67843248 48 58 C38.15890389 56.74431118 28.56428993 51.49101322 22 44 C22 43.34 22 42.68 22 42 C21.01 42 20.02 42 19 42 C18.06510852 44.24151197 18.06510852 44.24151197 18 47 C26.10275975 57.35083082 37.24276775 62.37502935 50 64 C50 64.66 50 65.32 50 66 C47.29352533 66.67511172 44.58522815 67.34027341 41.875 68 C41.11445313 68.19078125 40.35390625 68.3815625 39.5703125 68.578125 C38.82265625 68.75859375 38.075 68.9390625 37.3046875 69.125 C36.62390137 69.29257813 35.94311523 69.46015625 35.24169922 69.6328125 C33 70 33 70 27 70 C25.35 66.04 23.7 62.08 22 58 C18.94069253 58.65406436 18.94069253 58.65406436 17.95678711 60.77832031 C17.6500708 61.53725586 17.34335449 62.29619141 17.02734375 63.078125 C16.68509766 63.90957031 16.34285156 64.74101562 15.99023438 65.59765625 C15.64283203 66.47292969 15.29542969 67.34820312 14.9375 68.25 C14.58623047 69.10980469 14.23496094 69.96960938 13.87304688 70.85546875 C12.50250447 74.21834973 11.15597582 77.58478911 9.87890625 80.984375 C9 83 9 83 7 85 C4.0625 85.375 4.0625 85.375 1 85 C-0.9375 83.5 -0.9375 83.5 -2 81 C-2 74.57576291 0.29321602 69.52588451 2.94140625 63.734375 C4.24068765 60.86698708 4.24068765 60.86698708 4 57 C3.23816406 57.72445312 2.47632813 58.44890625 1.69140625 59.1953125 C-13.7698218 73.74158574 -13.7698218 73.74158574 -19.63671875 74.2109375 C-22 74 -22 74 -23.875 72.9375 C-25 71 -25 71 -25.0625 67.75 C-22.92823445 60.21729806 -17.31885205 56.33060652 -11.375 51.6875 C-10.47140747 50.98028809 -10.47140747 50.98028809 -9.54956055 50.25878906 C-6.54847758 47.92712656 -3.52375839 45.65291049 -0.421875 43.45703125 C5.58662405 39.26869939 5.58662405 39.26869939 8.7421875 32.9296875 C8.74923279 30.17498104 8.55321939 27.69438335 8 25 C7.01 25.66 6.02 26.32 5 27 C-2.62222272 27.88582588 -8.89140113 27.8359741 -15 23 C-16.83567061 21.07512801 -18.39833026 19.13555966 -20 17 C-18.64579084 13.75639549 -17.44600841 12.33059726 -14.375 10.640625 C-13.31539063 10.05087891 -13.31539063 10.05087891 -12.234375 9.44921875 C-11.49703125 9.05347656 -10.7596875 8.65773438 -10 8.25 C-8.89398438 7.63318359 -8.89398438 7.63318359 -7.765625 7.00390625 C-2.29671927 4 -2.29671927 4 0 4 C0 2.68 0 1.36 0 0 Z " fill="#ECCEB4" transform="translate(345,91)"/>
<path d="M0 0 C0.64089294 6.1525722 0.01986402 10.17604773 -3.5703125 15.27734375 C-6.4672649 18.76793393 -9.80780115 21.30263502 -14 23 C-17.015625 23.1953125 -17.015625 23.1953125 -20.25 23.125 C-21.32765625 23.10695313 -22.4053125 23.08890625 -23.515625 23.0703125 C-24.33546875 23.04710938 -25.1553125 23.02390625 -26 23 C-25.67 25.31 -25.34 27.62 -25 30 C-23.34015202 30.68346682 -21.67163195 31.34588315 -20 32 C-19.071875 32.37125 -18.14375 32.7425 -17.1875 33.125 C-10.11045186 35.0677191 -5.7685889 34.33839836 0.453125 30.80078125 C1.16984375 30.37152344 1.8865625 29.94226563 2.625 29.5 C11.60742714 24.17767217 11.60742714 24.17767217 17 25 C17.99 25.66 18.98 26.32 20 27 C20.40843923 29.71203652 20.13336867 32.2437142 20 35 C16.04194918 37.14635475 12.08351181 39.29199559 8.125 41.4375 C6.99707031 42.04916016 5.86914062 42.66082031 4.70703125 43.29101562 C3.63066406 43.87431641 2.55429688 44.45761719 1.4453125 45.05859375 C0.45031738 45.59798584 -0.54467773 46.13737793 -1.56982422 46.69311523 C-6.52635456 49.35860719 -10.37983577 49.5993804 -16 49 C-19.46594198 47.92452478 -22.72617688 46.56029017 -26 45 C-26.10957031 45.556875 -26.21914062 46.11375 -26.33203125 46.6875 C-26.84115724 49.13792752 -27.41165575 51.5674228 -28 54 C-28.23976562 55.10794922 -28.23976562 55.10794922 -28.484375 56.23828125 C-29.42145968 59.60038913 -30.16265569 61.43971814 -33.125 63.421875 C-35.41485769 64.49341097 -37.54163112 65.40756575 -40 66 C-40.66 65.67 -41.32 65.34 -42 65 C-41.22076172 64.30777344 -41.22076172 64.30777344 -40.42578125 63.6015625 C-35.1773476 58.69267631 -31.50619361 53.78359135 -29 47 C-29 46.01 -29 45.02 -29 44 C-30.65 43.67 -32.3 43.34 -34 43 C-34.99 44.7015625 -34.99 44.7015625 -36 46.4375 C-40.2047981 53.15084243 -44.99802603 59.14648307 -52 63 C-52.11611058 54.27880516 -52.0357115 45.66791888 -51 37 C-50.91234375 36.18660156 -50.8246875 35.37320313 -50.734375 34.53515625 C-49.73008727 28.14919622 -46.54368774 24.45864546 -42 20 C-38.05308794 21.88509233 -34.01711964 23.96576071 -32 28 C-30.35636866 28.72159424 -28.68949614 29.39351421 -27 30 C-27.90626784 28.7010161 -28.82549537 27.41106833 -29.75 26.125 C-30.26046875 25.40570313 -30.7709375 24.68640625 -31.296875 23.9453125 C-33.07503547 21.91429435 -34.52701607 21.02144988 -37 20 C-37 19.34 -37 18.68 -37 18 C-35.56150337 16.82913065 -34.12101046 15.66058193 -32.66796875 14.5078125 C-29.91659058 12.02061819 -28.05161209 9.07741814 -26 6 C-26.66 6 -27.32 6 -28 6 C-28 4.68 -28 3.36 -28 2 C-27.34 2.165 -26.68 2.33 -26 2.5 C-19.2203047 3.62994922 -14.46896609 3.01129077 -8.12109375 0.66796875 C-5.36454498 -0.20011567 -2.86586018 -0.22045078 0 0 Z " fill="#F7F6F6" transform="translate(219,86)"/>
<path d="M0 0 C0.75183563 0.00141495 1.50367126 0.0028299 2.27828979 0.00428772 C4.6829626 0.0098916 7.08754277 0.02244468 9.4921875 0.03515625 C11.12109241 0.04017075 12.74999877 0.04473375 14.37890625 0.04882812 C18.37503577 0.05986228 22.37109592 0.07712946 26.3671875 0.09765625 C22.66082444 7.93489973 15.65141534 12.49971367 7.7265625 15.50390625 C5.18845019 16.1426365 2.97403512 16.20858594 0.3671875 16.09765625 C0.0371875 17.41765625 -0.2928125 18.73765625 -0.6328125 20.09765625 C11.45881271 18.71711636 21.03929775 14.6817241 28.84375 5.1484375 C30.06786959 3.50058421 31.22851226 1.80566911 32.3671875 0.09765625 C33.3571875 0.09765625 34.3471875 0.09765625 35.3671875 0.09765625 C35.3671875 4.71765625 35.3671875 9.33765625 35.3671875 14.09765625 C33.19962891 14.95617187 33.19962891 14.95617187 30.98828125 15.83203125 C27.43582698 17.25026154 23.91074076 18.71453834 20.40234375 20.23828125 C3.27048547 27.56792564 3.27048547 27.56792564 -5.6328125 26.09765625 C-5.890625 26.64164063 -6.1484375 27.185625 -6.4140625 27.74609375 C-7.84516548 30.5073886 -9.46357883 33.09856434 -11.1328125 35.72265625 C-11.74125 36.68429688 -12.3496875 37.6459375 -12.9765625 38.63671875 C-14.6328125 41.09765625 -14.6328125 41.09765625 -16.6328125 43.09765625 C-18.80617949 43.51328022 -20.99853697 43.83224216 -23.1953125 44.09765625 C-28.09246917 44.73488873 -32.8668135 45.48243669 -37.66796875 46.6328125 C-41.88652403 47.63084049 -45.8490769 48.27511824 -50.1953125 48.34765625 C-51.12472656 48.3734375 -52.05414063 48.39921875 -53.01171875 48.42578125 C-56.09873791 48.03932878 -57.43560672 47.27451753 -59.6328125 45.09765625 C-60.07255142 42.08230364 -60.27707253 40.10553274 -58.6015625 37.484375 C-55.59799196 35.3687648 -52.25274058 35.34013136 -48.6953125 34.91015625 C-43.25353991 34.15873896 -43.25353991 34.15873896 -38.69140625 31.3046875 C-36.84181314 27.66692689 -36.17984261 24.17438529 -36.6328125 20.09765625 C-36.6328125 18.77765625 -36.6328125 17.45765625 -36.6328125 16.09765625 C-35.94316406 16.13246094 -35.25351563 16.16726562 -34.54296875 16.203125 C-27.69720367 16.40032811 -20.2148148 16.38382354 -14.8828125 11.4921875 C-14.2640625 10.80189453 -14.2640625 10.80189453 -13.6328125 10.09765625 C-12.9728125 10.42765625 -12.3128125 10.75765625 -11.6328125 11.09765625 C-11.6740625 10.19015625 -11.7153125 9.28265625 -11.7578125 8.34765625 C-11.63679676 5.20124699 -11.35177118 3.67609427 -9.6328125 1.09765625 C-6.56686656 -0.43531672 -3.36169397 -0.0236583 0 0 Z " fill="#F6F5F5" transform="translate(283.6328125,197.90234375)"/>
<path d="M0 0 C-0.99 6.93 -1.98 13.86 -3 21 C-16.625 25 -16.625 25 -20 25 C-19.68289062 26.1240625 -19.36578125 27.248125 -19.0390625 28.40625 C-17.8656715 33.09981401 -17.5640026 37.68088152 -17.375 42.5 C-17.25125 45.305 -17.1275 48.11 -17 51 C-23.27 51 -29.54 51 -36 51 C-36.4021875 47.7515625 -36.4021875 47.7515625 -36.8125 44.4375 C-37.8674932 36.85028382 -37.8674932 36.85028382 -41 30 C-43.9000525 28.25829702 -43.9000525 28.25829702 -47 27 C-49.375 24.8125 -49.375 24.8125 -51 23 C-50.21625 22.46375 -49.4325 21.9275 -48.625 21.375 C-45.7712643 19.23264843 -45.7712643 19.23264843 -45.25 16.0625 C-43.31669791 11.32590987 -39.53307019 9.98900019 -35 8 C-28.36891506 5.23033137 -21.7224611 3.72290104 -14.6875 2.3125 C-13.60404297 2.08755859 -12.52058594 1.86261719 -11.40429688 1.63085938 C-3.4284527 0 -3.4284527 0 0 0 Z " fill="#30455E" transform="translate(210,144)"/>
<path d="M0 0 C0.74900574 0.00141495 1.49801147 0.0028299 2.26971436 0.00428772 C4.65380912 0.00986966 7.03780878 0.0224188 9.421875 0.03515625 C11.04166531 0.04017359 12.66145709 0.04473609 14.28125 0.04882812 C18.24482812 0.05983317 22.20833545 0.07708534 26.171875 0.09765625 C26.171875 1.74765625 26.171875 3.39765625 26.171875 5.09765625 C26.831875 5.09765625 27.491875 5.09765625 28.171875 5.09765625 C28.296875 12.72265625 28.296875 12.72265625 27.171875 16.09765625 C14.79563919 16.24082607 2.41889815 16.08601586 -9.95501709 15.834198 C-11.65191059 15.80169844 -13.34890493 15.77407118 -15.04595947 15.75149536 C-32.53445075 15.50947498 -32.53445075 15.50947498 -39.828125 12.09765625 C-42.56727667 8.89084453 -43.828125 7.32835844 -43.828125 3.09765625 C-42.87969727 3.04230713 -41.93126953 2.98695801 -40.95410156 2.92993164 C-37.42786759 2.72234092 -33.90187009 2.5113615 -30.37597656 2.2980957 C-28.85131775 2.20657082 -27.32657772 2.11638853 -25.80175781 2.02758789 C-23.60719313 1.89954777 -21.41296804 1.76664644 -19.21875 1.6328125 C-18.19977631 1.57493309 -18.19977631 1.57493309 -17.16021729 1.5158844 C-13.47114864 1.28876747 -13.47114864 1.28876747 -9.85546875 0.5703125 C-6.60477229 -0.187557 -3.31954426 -0.02369518 0 0 Z " fill="#EBCEB3" transform="translate(326.828125,228.90234375)"/>
<path d="M0 0 C2.4786038 1.40454215 3.3513534 3.14174805 4.33203125 5.76953125 C5.78869274 11.92104416 5.55944247 17.86507943 3.6875 23.875 C0.14182908 29.09147268 -6.62653886 31.44224568 -12.125 34.0625 C-13.8265625 34.990625 -13.8265625 34.990625 -15.5625 35.9375 C-26.35814494 39.34665103 -38.89141426 38.18489984 -50.125 38.0625 C-49.79599558 35.10146024 -49.33147527 33.33830643 -47.53125 30.93359375 C-44.47195313 28.55469245 -41.24900001 27.36196233 -37.625 26.125 C-36.19329007 25.61530014 -34.76230574 25.10355782 -33.33203125 24.58984375 C-32.62385254 24.33702637 -31.91567383 24.08420898 -31.18603516 23.82373047 C-27.21762211 22.35802188 -23.35334977 20.64403825 -19.48046875 18.9453125 C-17.125 18.0625 -17.125 18.0625 -14.125 18.0625 C-14.125 13.4425 -14.125 8.8225 -14.125 4.0625 C-13.073125 3.77375 -12.02125 3.485 -10.9375 3.1875 C-7.26131 2.19166788 -7.26131 2.19166788 -4.4375 0.875 C-2.125 0.0625 -2.125 0.0625 0 0 Z " fill="#31465F" transform="translate(334.125,193.9375)"/>
<path d="M0 0 C0.5 2.5 0.5 2.5 0 5 C-1.375 6.8125 -1.375 6.8125 -3 8 C-3.66 8 -4.32 8 -5 8 C-5 17.57 -5 27.14 -5 37 C-14 40.375 -14 40.375 -17.5 40.29296875 C-18.61181641 40.2784668 -18.61181641 40.2784668 -19.74609375 40.26367188 C-20.48988281 40.23853516 -21.23367188 40.21339844 -22 40.1875 C-23.16208984 40.16719727 -23.16208984 40.16719727 -24.34765625 40.14648438 C-26.23208034 40.11158763 -28.11613932 40.05780027 -30 40 C-30.34462297 30.88663701 -29.82251338 23.03261403 -27.66796875 14.12109375 C-26.84521748 10.27677642 -26.76544521 6.90924655 -27 3 C-21.8056269 1.15115534 -16.58363237 -0.47332869 -11.25 -1.875 C-10.18265625 -2.16117188 -9.1153125 -2.44734375 -8.015625 -2.7421875 C-4.3100988 -3.05898119 -2.86258966 -2.30887706 0 0 Z " fill="#31465F" transform="translate(400,159)"/>
<path d="M0 0 C-1.04097612 3.86648272 -2.03698408 7.49461443 -4 11 C-3.278125 11.2475 -2.55625 11.495 -1.8125 11.75 C1.24713266 13.10983674 3.4673738 14.82917754 6 17 C4.4346922 22.00898495 2.13074902 26.69091896 -2 30 C-6.6211468 31.28396612 -11.23390866 31.59926362 -16 32 C-18.36866159 32.4432781 -20.69274327 32.97390482 -23.03515625 33.53515625 C-27.25371153 34.53318424 -31.2162644 35.17746199 -35.5625 35.25 C-36.49191406 35.27578125 -37.42132813 35.3015625 -38.37890625 35.328125 C-41.46592541 34.94167253 -42.80279422 34.17686128 -45 32 C-45.43973892 28.98464739 -45.64426003 27.00787649 -43.96875 24.38671875 C-40.96517946 22.27110855 -37.61992808 22.24247511 -34.0625 21.8125 C-28.62072741 21.06108271 -28.62072741 21.06108271 -24.05859375 18.20703125 C-22.20900064 14.56927064 -21.54703011 11.07672904 -22 7 C-22 5.68 -22 4.36 -22 3 C-21.28714844 3.03480469 -20.57429688 3.06960937 -19.83984375 3.10546875 C-12.50743182 3.31271054 -6.84001605 0 0 0 Z " fill="#F7D9BE" transform="translate(269,211)"/>
<path d="M0 0 C3.860774 -0.49137124 6.5918796 -0.83110608 10.0078125 1.18505859 C16.00641359 6.0047521 21.61773019 11.18088112 27.07836914 16.59790039 C28.57827547 18.07806787 30.09823271 19.53559895 31.61914062 20.99414062 C32.58203077 21.94399483 33.54366777 22.89512146 34.50390625 23.84765625 C35.36830322 24.69336182 36.2327002 25.53906738 37.12329102 26.41040039 C39.40999355 29.56573456 39.51306764 31.18326134 39 35 C36.44517353 39.22528993 33.60574904 41.27284411 29 43 C25.58331998 42.59645512 24.04744082 41.36203545 21.75 38.875 C18.63786862 35.6232217 15.39759663 32.63505379 11.98046875 29.70703125 C10.67275886 28.57987302 9.38298246 27.43152628 8.11328125 26.26171875 C7.51902344 25.72160156 6.92476562 25.18148437 6.3125 24.625 C5.79300781 24.14289063 5.27351562 23.66078125 4.73828125 23.1640625 C2.55307618 21.70071169 0.57967519 21.37794219 -2 21 C-2.2494783 13.70968976 -1.72330907 7.09326321 0 0 Z " fill="#EBCDB2" transform="translate(210,143)"/>
<path d="M0 0 C0.25394531 1.05058594 0.50789063 2.10117188 0.76953125 3.18359375 C1.11634287 4.60176932 1.46405948 6.01972377 1.8125 7.4375 C1.99264648 8.17234619 2.17279297 8.90719238 2.35839844 9.66430664 C3.31689198 13.5046425 4.3642938 17.22460301 5.75 20.9375 C7.33213947 25.3674905 7.22261703 29.32504229 7 34 C0.71471637 37.14264181 -8.13514282 36.11548358 -15 36 C-23.17981628 11.17760154 -23.17981628 11.17760154 -23 1 C-20.29178874 0.83111377 -17.58345903 0.66482399 -14.875 0.5 C-14.11445313 0.45230469 -13.35390625 0.40460938 -12.5703125 0.35546875 C-8.3724967 0.10215228 -4.20798902 -0.05377622 0 0 Z " fill="#EECFB4" transform="translate(393,198)"/>
<path d="M0 0 C1.06025391 -0.020625 2.12050781 -0.04125 3.21289062 -0.0625 C10.58809611 -0.0988983 17.66900025 0.23385671 23.62890625 5.00390625 C24.08136719 5.60074219 24.53382813 6.19757813 25 6.8125 C25.47566406 7.41191406 25.95132813 8.01132813 26.44140625 8.62890625 C27.4375 10.25 27.4375 10.25 27.4375 12.25 C22.38243886 10.95684482 19.99301453 8.99264687 16.4375 5.25 C15.12481794 4.54353838 13.79400556 3.86815443 12.4375 3.25 C4.15347479 11.35167245 4.15335891 20.11651009 3.4375 31.25 C3.1075 31.25 2.7775 31.25 2.4375 31.25 C2.4375 28.28 2.4375 25.31 2.4375 22.25 C1.07625 22.745 -0.285 23.24 -1.6875 23.75 C-10.31883436 26.88866704 -15.58852813 24.24132396 -24.5625 21.25 C-24.5625 33.79 -24.5625 46.33 -24.5625 59.25 C-27.98027475 55.83222525 -27.92229591 54.58485618 -27.92944336 49.94091797 C-27.91147705 49.09416504 -27.89351074 48.24741211 -27.875 47.375 C-27.85481812 46.05653076 -27.85481812 46.05653076 -27.83422852 44.71142578 C-27.77203062 41.88928978 -27.67305661 39.07063554 -27.5625 36.25 C-27.5305957 35.31478516 -27.49869141 34.37957031 -27.46582031 33.41601562 C-26.63654576 13.04563039 -26.63654576 13.04563039 -18.5625 5.25 C-12.44549029 -0.32327552 -8.00627977 0.03796695 0 0 Z " fill="#2B2726" transform="translate(164.5625,103.75)"/>
<path d="M0 0 C5.76171875 -0.48828125 5.76171875 -0.48828125 8 0 C11.55783826 3.11729089 14.4793225 6.69441551 17.4375 10.375 C20.00573382 13.56713089 22.59883142 16.67594555 25.375 19.6875 C30.40235998 25.55275331 31.40413976 31.45605789 31 39 C21.15890389 37.74431118 11.56428993 32.49101322 5 25 C5 24.34 5 23.68 5 23 C4.01 23 3.02 23 2 23 C2 23.66 2 24.32 2 25 C0.35 25 -1.3 25 -3 25 C-5.71391278 20.22642128 -7.56561146 16.65611463 -7 11 C-6.01 12.485 -6.01 12.485 -5 14 C-4.54109375 13.44570312 -4.0821875 12.89140625 -3.609375 12.3203125 C-2.99578125 11.59585938 -2.3821875 10.87140625 -1.75 10.125 C-0.84507812 9.04605469 -0.84507812 9.04605469 0.078125 7.9453125 C1.97087634 6.02947882 3.53657727 5.03550955 6 4 C5.0925 4.309375 4.185 4.61875 3.25 4.9375 C0.83436662 5.7272263 -1.52780285 6.42949297 -4 7 C-2.68 4.69 -1.36 2.38 0 0 Z " fill="#F5F5F5" transform="translate(362,110)"/>
<path d="M0 0 C0.74886475 0.00523682 1.49772949 0.01047363 2.26928711 0.01586914 C3.07817383 0.0190918 3.88706055 0.02231445 4.72045898 0.02563477 C5.5705957 0.03401367 6.42073242 0.04239258 7.29663086 0.05102539 C8.15063477 0.05553711 9.00463867 0.06004883 9.88452148 0.06469727 C12.00108749 0.07652166 14.11761771 0.0944577 16.23413086 0.11352539 C16.76381113 9.41235678 16.48074254 17.90259723 13.98413086 26.92602539 C13.77957275 27.68383301 13.57501465 28.44164062 13.36425781 29.22241211 C12.10489944 33.43614429 10.90626505 36.41831747 7.23413086 39.11352539 C2.34996179 39.74374075 0.24149886 39.63586435 -4.14086914 37.36352539 C-8.06641559 33.99877129 -8.06641559 33.99877129 -8.76586914 31.11352539 C-8.09971754 29.44665279 -7.43293375 27.78003282 -6.76586914 26.11352539 C-6.19626445 23.72881677 -5.67941117 21.33115921 -5.20336914 18.92602539 C-5.07333496 18.26908691 -4.94330078 17.61214844 -4.80932617 16.93530273 C-3.91190116 12.25840373 -3.30589904 7.61967104 -2.97680664 2.87133789 C-2.69070521 0.48715927 -2.40602791 0.15468035 0 0 Z " fill="#ECCEB3" transform="translate(176.765869140625,194.886474609375)"/>
<path d="M0 0 C4.0877977 2.90448784 7.42524621 6.35049242 9.6875 10.875 C9.78456713 13.01904169 9.81728536 15.16626751 9.8125 17.3125 C9.81636719 19.04306641 9.81636719 19.04306641 9.8203125 20.80859375 C9.6875 23.875 9.6875 23.875 8.6875 26.875 C5.54390893 26.54980092 4.02399729 26.19559978 1.703125 23.984375 C0.82914062 22.81648438 0.82914062 22.81648438 -0.0625 21.625 C-0.65546875 20.85671875 -1.2484375 20.0884375 -1.859375 19.296875 C-3.37607134 16.76904777 -3.92140527 14.77733455 -4.3125 11.875 C-5.3025 11.545 -6.2925 11.215 -7.3125 10.875 C-7.3125 12.195 -7.3125 13.515 -7.3125 14.875 C-10.21784565 16.58258253 -13.13833418 18.26238354 -16.0625 19.9375 C-16.8875 20.42283203 -17.7125 20.90816406 -18.5625 21.40820312 C-19.76132812 22.08979492 -19.76132812 22.08979492 -20.984375 22.78515625 C-22.08410645 23.42142944 -22.08410645 23.42142944 -23.20605469 24.07055664 C-25.69256044 25.02014362 -26.85097306 24.77253304 -29.3125 23.875 C-29.7575732 16.3458451 -30.03664107 10.96665558 -25.3125 4.875 C-18.47578095 -2.13029568 -8.90594881 -5.24573879 0 0 Z " fill="#3F3B38" transform="translate(352.3125,80.125)"/>
<path d="M0 0 C3.75271394 2.44234006 7.15251328 4.83906552 9.3828125 8.80078125 C9.0703125 11.55078125 9.0703125 11.55078125 8.3828125 13.80078125 C-6.71152712 19.43600138 -6.71152712 19.43600138 -14.6171875 16.80078125 C-15.2771875 16.47078125 -15.9371875 16.14078125 -16.6171875 15.80078125 C-16.6171875 17.12078125 -16.6171875 18.44078125 -16.6171875 19.80078125 C-15.9571875 19.80078125 -15.2971875 19.80078125 -14.6171875 19.80078125 C-16.28469898 23.74217203 -18.84429399 26.59006245 -21.6171875 29.80078125 C-24.6171875 28.80078125 -24.6171875 28.80078125 -26.3046875 26.23828125 C-28.6096351 20.20151373 -28.23220701 14.66712679 -25.8046875 8.76171875 C-20.39307926 -0.17455539 -9.78496425 -4.48355825 0 0 Z " fill="#222322" transform="translate(207.6171875,72.19921875)"/>
<path d="M0 0 C1.875 0.125 1.875 0.125 4 1 C4.268125 1.825 4.53625 2.65 4.8125 3.5 C6.50180306 8.47899851 9.33028771 12.25431023 13 16 C16.21157942 17.63587237 16.21157942 17.63587237 19 18 C16.525 21.465 16.525 21.465 14 25 C15.0725 24.484375 16.145 23.96875 17.25 23.4375 C20.25254899 21.99396683 21.83246499 21.94181906 25 23 C24.48050781 23.29132813 23.96101563 23.58265625 23.42578125 23.8828125 C18.58707149 26.72700788 15.35090767 29.49721782 12 34 C11.67 32.68 11.34 31.36 11 30 C10.34 30 9.68 30 9 30 C8.505 27.525 8.505 27.525 8 25 C7.01 25.66 6.02 26.32 5 27 C-2.62222272 27.88582588 -8.89140113 27.8359741 -15 23 C-16.83567061 21.07512801 -18.39833026 19.13555966 -20 17 C-18.64579084 13.75639549 -17.44600841 12.33059726 -14.375 10.640625 C-13.66859375 10.24746094 -12.9621875 9.85429688 -12.234375 9.44921875 C-11.49703125 9.05347656 -10.7596875 8.65773438 -10 8.25 C-9.26265625 7.83878906 -8.5253125 7.42757812 -7.765625 7.00390625 C-2.29671927 4 -2.29671927 4 0 4 C0 2.68 0 1.36 0 0 Z " fill="#EACCB1" transform="translate(345,91)"/>
<path d="M0 0 C0.64089294 6.1525722 0.01986402 10.17604773 -3.5703125 15.27734375 C-6.4672649 18.76793393 -9.80780115 21.30263502 -14 23 C-17.015625 23.1953125 -17.015625 23.1953125 -20.25 23.125 C-21.32765625 23.10695313 -22.4053125 23.08890625 -23.515625 23.0703125 C-24.33546875 23.04710938 -25.1553125 23.02390625 -26 23 C-25.67 25.64 -25.34 28.28 -25 31 C-25.99 30.67 -26.98 30.34 -28 30 C-28.66666667 28.66666667 -29.33333333 27.33333333 -30 26 C-33.14540649 22.5394113 -33.14540649 22.5394113 -37 20 C-37 19.34 -37 18.68 -37 18 C-35.56150337 16.82913065 -34.12101046 15.66058193 -32.66796875 14.5078125 C-29.91659058 12.02061819 -28.05161209 9.07741814 -26 6 C-26.66 6 -27.32 6 -28 6 C-28 4.68 -28 3.36 -28 2 C-27.34 2.165 -26.68 2.33 -26 2.5 C-19.2203047 3.62994922 -14.46896609 3.01129077 -8.12109375 0.66796875 C-5.36454498 -0.20011567 -2.86586018 -0.22045078 0 0 Z " fill="#EACCB1" transform="translate(219,86)"/>
<path d="M0 0 C0.99 0.66 1.98 1.32 3 2 C3.40843923 4.71203652 3.13336867 7.2437142 3 10 C-0.95805082 12.14635475 -4.91648819 14.29199559 -8.875 16.4375 C-10.00292969 17.04916016 -11.13085938 17.66082031 -12.29296875 18.29101562 C-13.90751953 19.1659668 -13.90751953 19.1659668 -15.5546875 20.05859375 C-16.54968262 20.59798584 -17.54467773 21.13737793 -18.56982422 21.69311523 C-23.52635456 24.35860719 -27.37983577 24.5993804 -33 24 C-36.46594198 22.92452478 -39.72617688 21.56029017 -43 20 C-42.51917969 19.43796875 -42.03835937 18.8759375 -41.54296875 18.296875 C-39.83801733 15.75887137 -39.53411483 14.26396174 -39.3125 11.25 C-39.21388672 10.05117187 -39.21388672 10.05117187 -39.11328125 8.828125 C-39.05720703 7.92320313 -39.05720703 7.92320313 -39 7 C-37.06330567 7.47617071 -35.14917229 7.95205177 -33.25 8.5625 C-25.47621541 10.07406923 -20.97160559 8.45084471 -14.375 4.5 C-5.39257286 -0.82232783 -5.39257286 -0.82232783 0 0 Z " fill="#ECCEB3" transform="translate(236,111)"/>
<path d="M0 0 C3.37592753 1.95902364 5.28300121 3.38414289 7.140625 6.8671875 C7.388125 7.95 7.388125 7.95 7.640625 9.0546875 C3.10301641 12.78200884 -0.31015513 13.18622583 -6.109375 13.1171875 C-7.09421875 13.10816406 -8.0790625 13.09914062 -9.09375 13.08984375 C-9.84140625 13.07824219 -10.5890625 13.06664062 -11.359375 13.0546875 C-11.111875 14.2096875 -10.864375 15.3646875 -10.609375 16.5546875 C-9.9371066 21.57429156 -11.76351095 24.86565367 -14.359375 29.0546875 C-17.109375 29.4296875 -17.109375 29.4296875 -20.359375 29.0546875 C-24.28996752 25.43440492 -24.75185123 22.00641674 -25.109375 16.7421875 C-24.93350043 10.33742175 -22.95917445 7.21263547 -18.5 2.76171875 C-12.99299882 -1.62981321 -6.65568267 -2.66668081 0 0 Z " fill="#212222" transform="translate(258.359375,201.9453125)"/>
<path d="M0 0 C0.25394531 1.05058594 0.50789063 2.10117188 0.76953125 3.18359375 C2.9742765 12.32904062 2.9742765 12.32904062 5.75 21.3125 C7 25 7 25 7 28 C3.7 28.66 0.4 29.32 -3 30 C-3.98996521 27.02404953 -4.96707868 24.04482456 -5.9375 21.0625 C-6.21529297 20.23169922 -6.49308594 19.40089844 -6.77929688 18.54492188 C-8.57237528 12.99285983 -9.53617082 7.81841412 -10 2 C-13.96 2 -17.92 2 -22 2 C-22.33 3.32 -22.66 4.64 -23 6 C-23 4.35 -23 2.7 -23 1 C-20.29178874 0.83111377 -17.58345903 0.66482399 -14.875 0.5 C-14.11445313 0.45230469 -13.35390625 0.40460938 -12.5703125 0.35546875 C-8.3724967 0.10215228 -4.20798902 -0.05377622 0 0 Z " fill="#E1C2A7" transform="translate(393,198)"/>
<path d="M0 0 C3.22588537 1.14514058 4.85629192 2.75481845 7.2734375 5.16796875 C15.21751961 12.55972563 22.89088109 15.55567069 33.5859375 16.91796875 C33.5859375 17.57796875 33.5859375 18.23796875 33.5859375 18.91796875 C30.87946283 19.59308047 28.17116565 20.25824216 25.4609375 20.91796875 C24.32011719 21.20414063 24.32011719 21.20414063 23.15625 21.49609375 C22.03476562 21.76679688 22.03476562 21.76679688 20.890625 22.04296875 C20.20983887 22.21054688 19.52905273 22.378125 18.82763672 22.55078125 C16.5859375 22.91796875 16.5859375 22.91796875 10.5859375 22.91796875 C8.9359375 18.95796875 7.2859375 14.99796875 5.5859375 10.91796875 C3.6059375 10.91796875 1.6259375 10.91796875 -0.4140625 10.91796875 C-3.05739899 10.21869962 -4.9566174 9.2189691 -7.4140625 7.91796875 C-7.7440625 6.92796875 -8.0740625 5.93796875 -8.4140625 4.91796875 C-3.14414138 -0.10683976 -3.14414138 -0.10683976 0 0 Z " fill="#F1F1F1" transform="translate(361.4140625,138.08203125)"/>
<path d="M0 0 C1.216875 0.04125 2.43375 0.0825 3.6875 0.125 C2.4754654 8.03141172 -2.20776116 15.18577402 -8.5234375 20.0546875 C-11.58324811 21.88522922 -13.76724952 22.3183773 -17.3125 22.125 C-19.82349435 20.70910891 -21.27942598 19.25724836 -23.3125 17.125 C-23.3125 16.465 -23.3125 15.805 -23.3125 15.125 C-22.11625 14.650625 -20.92 14.17625 -19.6875 13.6875 C-15.13465852 11.46327233 -13.23163215 8.51266633 -10.83203125 4.1484375 C-8.06656922 0.46589423 -4.4204957 -0.14984731 0 0 Z " fill="#242525" transform="translate(260.3125,170.875)"/>
<path d="M0 0 C2.22433284 1.07097507 4.11399909 2.08981746 6.0625 3.625 C9.2991184 5.14001287 10.80588594 5.04936202 14.3125 4.875 C19.44114792 4.71538038 22.33439122 5.75582097 26.5390625 8.61328125 C28 10 28 10 29 13 C24.39572376 15.30675162 20.22324255 15.36668333 15.1875 15.375 C14.41857422 15.39949219 13.64964844 15.42398438 12.85742188 15.44921875 C6.90263572 15.47936957 3.14964842 13.97117685 -2 11 C-2.1953125 4.1640625 -2.1953125 4.1640625 -2 2 C-1.34 1.34 -0.68 0.68 0 0 Z " fill="#232524" transform="translate(167,228)"/>
<path d="M0 0 C0 9.24 0 18.48 0 28 C-8 31 -8 31 -12 31 C-12.47157521 22.44178314 -12.84221651 10.56848915 -7.078125 3.71484375 C-2.57630979 0 -2.57630979 0 0 0 Z " fill="#283C53" transform="translate(395,168)"/>
<path d="M0 0 C-1.29357826 6.61162219 -4.10661938 12.2919109 -9 17 C-14.15574101 19.31165904 -19.49578864 20.85225251 -25 19 C-24.505 17.948125 -24.01 16.89625 -23.5 15.8125 C-22.16768406 12.7100178 -21.72376593 10.4068869 -22 7 C-22 5.68 -22 4.36 -22 3 C-21.28714844 3.03480469 -20.57429687 3.06960937 -19.83984375 3.10546875 C-12.50743182 3.31271054 -6.84001605 0 0 0 Z " fill="#E8CAAF" transform="translate(269,211)"/>
<path d="M0 0 C0.66 0.33 1.32 0.66 2 1 C0.9171875 1.7734375 0.9171875 1.7734375 -0.1875 2.5625 C-3.37303026 5.3232929 -6.05811001 8.23190708 -8 12 C-8 13.32 -8 14.64 -8 16 C-0.00455088 18.90743604 8.72080945 18.83982012 17 17 C17.33 15.02 17.66 13.04 18 11 C18.93423645 14.01031744 19.04449911 14.86650268 18 18 C17.77674186 20.05893621 17.59294241 22.12233653 17.4375 24.1875 C17.31181641 25.81751953 17.31181641 25.81751953 17.18359375 27.48046875 C17.09271484 28.72763672 17.09271484 28.72763672 17 30 C16.67 30 16.34 30 16 30 C16 27.03 16 24.06 16 21 C14.63875 21.495 13.2775 21.99 11.875 22.5 C3.24366564 25.63866704 -2.02602813 22.99132396 -11 20 C-11 32.54 -11 45.08 -11 58 C-14.41777475 54.58222525 -14.35979591 53.33485618 -14.36694336 48.69091797 C-14.34897705 47.84416504 -14.33101074 46.99741211 -14.3125 46.125 C-14.29231812 44.80653076 -14.29231812 44.80653076 -14.27172852 43.46142578 C-14.20953062 40.63928978 -14.11055661 37.82063554 -14 35 C-13.9680957 34.06478516 -13.93619141 33.12957031 -13.90332031 32.16601562 C-13.07336224 11.77884044 -13.07336224 11.77884044 -5 4 C-2.0625 1.375 -2.0625 1.375 0 0 Z " fill="#5A5655" transform="translate(151,105)"/>
<path d="M0 0 C0.33 2.31 0.66 4.62 1 7 C-8.5443685 11.77218425 -18.5259111 11.14775361 -29 11 C-28.43170552 7.70389202 -27.6068917 6.10622079 -25 4 C-22.76342773 3.39990234 -22.76342773 3.39990234 -20.18359375 3.0859375 C-19.25482422 2.96476563 -18.32605469 2.84359375 -17.36914062 2.71875 C-16.40169922 2.6053125 -15.43425781 2.491875 -14.4375 2.375 C-12.51917057 2.13568618 -10.60118031 1.89363272 -8.68359375 1.6484375 C-7.83337646 1.54708496 -6.98315918 1.44573242 -6.10717773 1.34130859 C-3.82170669 0.97112107 -2.32098855 0 0 0 Z " fill="#222323" transform="translate(402,231)"/>
<path d="M0 0 C5.75 -0.125 5.75 -0.125 8 1 C8.05410136 4.06273831 8.09372225 7.12451452 8.125 10.1875 C8.14175781 11.05181641 8.15851563 11.91613281 8.17578125 12.80664062 C8.21038233 17.32208103 8.15567916 20.90081483 6 25 C4.68 25 3.36 25 2 25 C0.16930097 21.87070822 -0.23931181 19.62356854 -0.1953125 16.015625 C-0.18886719 15.08105469 -0.18242187 14.14648438 -0.17578125 13.18359375 C-0.15902344 12.21550781 -0.14226562 11.24742187 -0.125 10.25 C-0.11597656 9.26644531 -0.10695313 8.28289062 -0.09765625 7.26953125 C-0.07412785 4.84610593 -0.04125368 2.42317778 0 0 Z " fill="#262828" transform="translate(354,228)"/>
<path d="M0 0 C3.875 1.875 3.875 1.875 5 3 C5.41515084 6.65332737 5.29689339 8.50898401 3.375 11.6875 C0.71379273 14.2786755 -1.52408778 15.69653292 -5 17 C-7.75854121 16.84236907 -8.69169815 16.27526951 -10.75 14.4375 C-11.1625 13.963125 -11.575 13.48875 -12 13 C-10.44997253 9.11602311 -7.99523379 6.97020381 -4.875 4.25 C-3.96492187 3.45078125 -3.05484375 2.6515625 -2.1171875 1.828125 C-1.06917969 0.92320312 -1.06917969 0.92320312 0 0 Z " fill="#F3F2F2" transform="translate(244,169)"/>
<path d="M0 0 C6.18160604 0.53753096 11.326858 2.54582388 17 5 C16.625 7.4375 16.625 7.4375 16 10 C12.78501861 11.6074907 9.48701742 11.47314549 6 11 C2.06377171 8.95899274 -0.48209259 7.25014075 -2 3 C-1.34 2.01 -0.68 1.02 0 0 Z " fill="#F6F5F4" transform="translate(170,223)"/>
<path d="M0 0 C0.66022156 0.00141495 1.32044312 0.0028299 2.00067139 0.00428772 C4.09945294 0.0098638 6.19812595 0.02241178 8.296875 0.03515625 C9.72395679 0.04017435 11.15104025 0.04473671 12.578125 0.04882812 C16.06774332 0.05982537 19.55729856 0.07707345 23.046875 0.09765625 C22.716875 1.74765625 22.386875 3.39765625 22.046875 5.09765625 C6.536875 4.43765625 -8.973125 3.77765625 -24.953125 3.09765625 C-24.953125 2.76765625 -24.953125 2.43765625 -24.953125 2.09765625 C-23.98890625 2.03707031 -23.0246875 1.97648438 -22.03125 1.9140625 C-20.76796875 1.83027344 -19.5046875 1.74648437 -18.203125 1.66015625 C-16.95015625 1.57894531 -15.6971875 1.49773437 -14.40625 1.4140625 C-11.20074412 1.22960021 -11.20074412 1.22960021 -9.171875 0.58398438 C-6.09022163 -0.09148366 -3.15304365 -0.01336035 0 0 Z " fill="#D7B89D" transform="translate(325.953125,228.90234375)"/>
<path d="M0 0 C0 1.98 0 3.96 0 6 C-6.28528363 9.14264181 -15.13514282 8.11548358 -22 8 C-22 6.68 -22 5.36 -22 4 C-16.84174654 2.07425204 -12.57865676 0.7278704 -7 1 C-4.53721199 -0.231394 -2.7204945 -0.07159196 0 0 Z " fill="#F5F4F3" transform="translate(400,226)"/>
<path d="M0 0 C0.66 0 1.32 0 2 0 C3.49573238 3.90232743 2.47180405 6.67131971 1.25 10.5625 C0.73179687 12.26599609 0.73179687 12.26599609 0.203125 14.00390625 C-0.94181802 16.85511177 -1.55678973 18.22101947 -4 20 C-6.26171875 20.94921875 -6.26171875 20.94921875 -8.6875 21.6875 C-9.49574219 21.93886719 -10.30398437 22.19023437 -11.13671875 22.44921875 C-11.75160156 22.63097656 -12.36648437 22.81273437 -13 23 C-11.700625 21.5459375 -11.700625 21.5459375 -10.375 20.0625 C-2.73518933 11.1167135 -2.73518933 11.1167135 0 0 Z " fill="#D2D4D3" transform="translate(190,129)"/>
<path d="M0 0 C1.32 0 2.64 0 4 0 C4 1.65 4 3.3 4 5 C4.66 5 5.32 5 6 5 C6.125 12.625 6.125 12.625 5 16 C3.68 16 2.36 16 1 16 C0.08342019 10.61509359 -0.11138159 5.45769811 0 0 Z " fill="#F8F7F5" transform="translate(349,229)"/>
<path d="M0 0 C-1.32992928 3.98978783 -3.22964348 4.83197426 -6.7421875 6.921875 C-11.68810364 9.28359274 -16.7113606 9.48742983 -22 8 C-18.51849756 5.67899838 -14.89433316 4.32324845 -11 2.875 C-10.27554687 2.59785156 -9.55109375 2.32070312 -8.8046875 2.03515625 C-5.74462128 0.88904289 -3.29457901 0 0 0 Z " fill="#2A4059" transform="translate(328,222)"/>
<path d="M0 0 C0.33 2.31 0.66 4.62 1 7 C-2.6441774 9.4294516 -4.71241272 9.16179575 -9 9 C-9.33 7.02 -9.66 5.04 -10 3 C-8.70990357 2.49596232 -7.41786211 1.99690074 -6.125 1.5 C-5.04605469 1.08234375 -5.04605469 1.08234375 -3.9453125 0.65625 C-2 0 -2 0 0 0 Z " fill="#121313" transform="translate(402,231)"/>
<path d="M0 0 C5.39399122 0.37632497 7.46951619 1.99242379 11 6 C11.598125 6.556875 12.19625 7.11375 12.8125 7.6875 C14 9 14 9 14 11 C7.32264932 9.29184052 3.87680487 5.50914377 0 0 Z " fill="#474240" transform="translate(178,105)"/>
<path d="M0 0 C7.56634615 -0.37211538 7.56634615 -0.37211538 9.76171875 1.51171875 C10.17035156 2.00285156 10.57898438 2.49398437 11 3 C10.12988281 3.18175781 10.12988281 3.18175781 9.2421875 3.3671875 C4.71971558 4.33735474 0.36249034 5.43397783 -4 7 C-2.68 4.69 -1.36 2.38 0 0 Z " fill="#EAE8E6" transform="translate(362,110)"/>
<path d="M0 0 C5.75 -0.125 5.75 -0.125 8 1 C8 2.32 8 3.64 8 5 C5.36 5 2.72 5 0 5 C0 3.35 0 1.7 0 0 Z " fill="#161817" transform="translate(354,228)"/>
<path d="M0 0 C-0.51949219 0.30292969 -1.03898437 0.60585937 -1.57421875 0.91796875 C-5.97824341 3.56363976 -9.53276778 6.20771476 -13 10 C-13.3125 7.75 -13.3125 7.75 -13 5 C-8.89699315 1.01096557 -5.62584091 -1.62576276 0 0 Z " fill="#63615E" transform="translate(370,114)"/>
<path d="M0 0 C0.33 0 0.66 0 1 0 C1 1.65 1 3.3 1 5 C-0.45381897 5.69699552 -1.91322953 6.38233866 -3.375 7.0625 C-4.18710938 7.44535156 -4.99921875 7.82820312 -5.8359375 8.22265625 C-6.55007812 8.47917969 -7.26421875 8.73570312 -8 9 C-8.66 8.67 -9.32 8.34 -10 8 C-9.44570312 7.59007812 -8.89140625 7.18015625 -8.3203125 6.7578125 C-7.59585938 6.21898437 -6.87140625 5.68015625 -6.125 5.125 C-5.04605469 4.32449219 -5.04605469 4.32449219 -3.9453125 3.5078125 C-1.91747368 2.00126838 -1.91747368 2.00126838 0 0 Z " fill="#E7E7E8" transform="translate(187,143)"/>
<path d="M0 0 C-1.53643852 3.68069887 -3.78150945 5.98775204 -6.625 8.75 C-7.85089844 9.94882813 -7.85089844 9.94882813 -9.1015625 11.171875 C-9.72804687 11.77515625 -10.35453125 12.3784375 -11 13 C-11 8.08173023 -7.00559102 5.09178453 -3.8125 1.625 C-2 0 -2 0 0 0 Z " fill="#35302F" transform="translate(155,104)"/>
<path d="M0 0 C1.06546953 3.1964086 1.07427838 5.65747276 1 9 C0.01 9.495 0.01 9.495 -1 10 C-1.9765625 3.9453125 -1.9765625 3.9453125 -2 2 C-1.34 1.34 -0.68 0.68 0 0 Z " fill="#8B7963" transform="translate(272,200)"/>
</svg>
